<?xml version="1.0" encoding="UTF-8"?>
<!--
Font Awesome Pro 5.15.4 by @fontawesome - https://fontawesome.com
License - https://fontawesome.com/license (Commercial License)
-->
<svg xmlns="http://www.w3.org/2000/svg" style="display: none;">
  <defs><style>.fa-secondary { opacity:.4; }</style></defs>
  <symbol id="chart-bar" viewBox="0 0 512 512">
    <path d="M512 400v32a16 16 0 0 1-16 16H32a32 32 0 0 1-32-32V80a16 16 0 0 1 16-16h32a16 16 0 0 1 16 16v304h432a16 16 0 0 1 16 16z" class="fa-secondary"></path><path d="M275.2 96h-38.4c-6.4 0-12.8 6.4-12.8 12.8v198.4c0 6.4 6.4 12.8 12.8 12.8h38.4c6.4 0 12.8-6.4 12.8-12.8V108.8c0-6.4-6.4-12.8-12.8-12.8zm-96 128h-38.4c-6.4 0-12.8 6.4-12.8 12.8v70.4c0 6.4 6.4 12.8 12.8 12.8h38.4c6.4 0 12.8-6.4 12.8-12.8v-70.4c0-6.4-6.4-12.8-12.8-12.8zm288-160h-38.4c-6.4 0-12.8 6.4-12.8 12.8v230.4c0 6.4 6.4 12.8 12.8 12.8h38.4c6.4 0 12.8-6.4 12.8-12.8V76.8c0-6.4-6.4-12.8-12.8-12.8zm-96 96h-38.4c-6.4 0-12.8 6.4-12.8 12.8v134.4c0 6.4 6.4 12.8 12.8 12.8h38.4c6.4 0 12.8-6.4 12.8-12.8V172.8c0-6.4-6.4-12.8-12.8-12.8z" class="fa-primary"></path>
  </symbol>
  <symbol id="chart-pie" viewBox="0 0 544 512">
    <path d="M379.86 443.87c6.85 6.85 6.33 18.48-1.57 24.08A238.14 238.14 0 0 1 243 512C114.83 513.59 4.5 408.51.14 280.37-4.1 155.6 87 51.49 206.16 34.65c9.45-1.34 17.84 6.51 17.84 16.06V288z" class="fa-secondary"></path><path d="M512 223.2C503.72 103.74 408.26 8.28 288.8 0 279.68-.59 272 7.1 272 16.24V240h223.77c9.14 0 16.82-7.68 16.23-16.8zm15.79 64.8H290.5l158 158c6 6 16 6.53 22.19.68a239.5 239.5 0 0 0 73.13-140.86c1.37-9.43-6.48-17.82-16.03-17.82z" class="fa-primary"></path>
  </symbol>
  <symbol id="chevron-right" viewBox="0 0 320 512">
    <path d="M188.74 256l56.78 56.89L91.21 466.9a24 24 0 0 1-33.94 0l-22.7-22.65a23.93 23.93 0 0 1 0-33.84z" class="fa-secondary"></path><path d="M91.25 45.06l194.33 194a23.93 23.93 0 0 1 0 33.84l-40 40-211-211.34a23.92 23.92 0 0 1 0-33.84l22.7-22.65a24 24 0 0 1 33.97-.01z" class="fa-primary"></path>
  </symbol>
  <symbol id="hourglass-half" viewBox="0 0 384 512">
    <path d="M284.92 384H99.06A187.69 187.69 0 0 0 88 448h208a187.6 187.6 0 0 0-11.08-64zM192 208c40.83 0 75.86-33.2 92.92-80H99.08c17.06 46.8 52.1 80 92.92 80z" class="fa-secondary"></path><path d="M360 64a24 24 0 0 0 24-24V24a24 24 0 0 0-24-24H24A24 24 0 0 0 0 24v16a24 24 0 0 0 24 24c0 91 51 167.73 120.84 192C75 280.27 24 357 24 448a24 24 0 0 0-24 24v16a24 24 0 0 0 24 24h336a24 24 0 0 0 24-24v-16a24 24 0 0 0-24-24c0-91-51-167.73-120.84-192C309 231.73 360 155 360 64zm-64 384H88c0-77.46 46.2-144 104-144s104 66.52 104 144zM192 208c-57.79 0-104-66.52-104-144h208c0 77.46-46.2 144-104 144z" class="fa-primary"></path>
  </symbol>
  <symbol id="times-circle" viewBox="0 0 512 512">
    <path d="M256 8C119 8 8 119 8 256s111 248 248 248 248-111 248-248S393 8 256 8zm121.6 313.1a12 12 0 0 1 0 17L338 377.6a12 12 0 0 1-17 0L256 312l-65.1 65.6a12 12 0 0 1-17 0L134.4 338a12 12 0 0 1 0-17l65.6-65-65.6-65.1a12 12 0 0 1 0-17l39.6-39.6a12 12 0 0 1 17 0l65 65.7 65.1-65.6a12 12 0 0 1 17 0l39.6 39.6a12 12 0 0 1 0 17L312 256z" class="fa-secondary"></path><path d="M377.6 321.1a12 12 0 0 1 0 17L338 377.6a12 12 0 0 1-17 0L256 312l-65.1 65.6a12 12 0 0 1-17 0L134.4 338a12 12 0 0 1 0-17l65.6-65-65.6-65.1a12 12 0 0 1 0-17l39.6-39.6a12 12 0 0 1 17 0l65 65.7 65.1-65.6a12 12 0 0 1 17 0l39.6 39.6a12 12 0 0 1 0 17L312 256z" class="fa-primary"></path>
  </symbol>
  <symbol id="user" viewBox="0 0 448 512">
    <path d="M352 128A128 128 0 1 1 224 0a128 128 0 0 1 128 128z" class="fa-secondary"></path><path d="M313.6 288h-16.7a174.1 174.1 0 0 1-145.8 0h-16.7A134.43 134.43 0 0 0 0 422.4V464a48 48 0 0 0 48 48h352a48 48 0 0 0 48-48v-41.6A134.43 134.43 0 0 0 313.6 288z" class="fa-primary"></path>
  </symbol>
  <symbol id="user-circle" viewBox="0 0 496 512">
    <path d="M248,8C111,8,0,119,0,256S111,504,248,504,496,393,496,256,385,8,248,8Zm0,96a88,88,0,1,1-88,88A88,88,0,0,1,248,104Zm0,344a191.61,191.61,0,0,1-146.5-68.2C120.3,344.4,157.1,320,200,320a24.76,24.76,0,0,1,7.1,1.1,124.67,124.67,0,0,0,81.8,0A24.76,24.76,0,0,1,296,320c42.9,0,79.7,24.4,98.5,59.8A191.61,191.61,0,0,1,248,448Z" class="fa-secondary"></path><path d="M248,280a88,88,0,1,0-88-88A88,88,0,0,0,248,280Zm48,40a24.76,24.76,0,0,0-7.1,1.1,124.67,124.67,0,0,1-81.8,0A24.76,24.76,0,0,0,200,320c-42.9,0-79.7,24.4-98.5,59.8,68.07,80.91,188.84,91.32,269.75,23.25A192,192,0,0,0,394.5,379.8C375.7,344.4,338.9,320,296,320Z" class="fa-primary"></path>
  </symbol>
</svg>
