<?xml version="1.0" encoding="UTF-8"?>
<!--
Font Awesome Pro 5.15.4 by @fontawesome - https://fontawesome.com
License - https://fontawesome.com/license (Commercial License)
-->
<svg xmlns="http://www.w3.org/2000/svg" style="display: none;">
  <symbol id="angle-double-down" viewBox="0 0 320 512">
    <path d="M151.5 427.8L3.5 281c-4.7-4.7-4.7-12.3 0-17l19.8-19.8c4.7-4.7 12.3-4.7 17 0L160 362.7l119.7-118.5c4.7-4.7 12.3-4.7 17 0l19.8 19.8c4.7 4.7 4.7 12.3 0 17l-148 146.8c-4.7 4.7-12.3 4.7-17 0zm17-160l148-146.8c4.7-4.7 4.7-12.3 0-17l-19.8-19.8c-4.7-4.7-12.3-4.7-17 0L160 202.7 40.3 84.2c-4.7-4.7-12.3-4.7-17 0L3.5 104c-4.7 4.7-4.7 12.3 0 17l148 146.8c4.7 4.7 12.3 4.7 17 0z"></path>
  </symbol>
  <symbol id="angle-double-up" viewBox="0 0 320 512">
    <path d="M168.5 84.2l148 146.8c4.7 4.7 4.7 12.3 0 17l-19.8 19.8c-4.7 4.7-12.3 4.7-17 0L160 149.3 40.3 267.8c-4.7 4.7-12.3 4.7-17 0L3.5 248c-4.7-4.7-4.7-12.3 0-17l148-146.8c4.7-4.7 12.3-4.7 17 0zm-17 160L3.5 391c-4.7 4.7-4.7 12.3 0 17l19.8 19.8c4.7 4.7 12.3 4.7 17 0L160 309.3l119.7 118.5c4.7 4.7 12.3 4.7 17 0l19.8-19.8c4.7-4.7 4.7-12.3 0-17l-148-146.8c-4.7-4.7-12.3-4.7-17 0z"></path>
  </symbol>
  <symbol id="angle-down" viewBox="0 0 320 512">
    <path d="M151.5 347.8L3.5 201c-4.7-4.7-4.7-12.3 0-17l19.8-19.8c4.7-4.7 12.3-4.7 17 0L160 282.7l119.7-118.5c4.7-4.7 12.3-4.7 17 0l19.8 19.8c4.7 4.7 4.7 12.3 0 17l-148 146.8c-4.7 4.7-12.3 4.7-17 0z"></path>
  </symbol>
  <symbol id="angle-up" viewBox="0 0 320 512">
    <path d="M168.5 164.2l148 146.8c4.7 4.7 4.7 12.3 0 17l-19.8 19.8c-4.7 4.7-12.3 4.7-17 0L160 229.3 40.3 347.8c-4.7 4.7-12.3 4.7-17 0L3.5 328c-4.7-4.7-4.7-12.3 0-17l148-146.8c4.7-4.7 12.3-4.7 17 0z"></path>
  </symbol>
  <symbol id="arrows" viewBox="0 0 512 512">
    <path d="M360.549 412.216l-96.064 96.269c-4.686 4.686-12.284 4.686-16.971 0l-96.064-96.269c-4.686-4.686-4.686-12.284 0-16.971l19.626-19.626c4.753-4.753 12.484-4.675 17.14.173L230 420.78h2V280H91.22v2l44.986 41.783c4.849 4.656 4.927 12.387.173 17.14l-19.626 19.626c-4.686 4.686-12.284 4.686-16.971 0L3.515 264.485c-4.686-4.686-4.686-12.284 0-16.971l96.269-96.064c4.686-4.686 12.284-4.686 16.97 0l19.626 19.626c4.753 4.753 4.675 12.484-.173 17.14L91.22 230v2H232V91.22h-2l-41.783 44.986c-4.656 4.849-12.387 4.927-17.14.173l-19.626-19.626c-4.686-4.686-4.686-12.284 0-16.971l96.064-96.269c4.686-4.686 12.284-4.686 16.971 0l96.064 96.269c4.686 4.686 4.686 12.284 0 16.971l-19.626 19.626c-4.753 4.753-12.484 4.675-17.14-.173L282 91.22h-2V232h140.78v-2l-44.986-41.783c-4.849-4.656-4.927-12.387-.173-17.14l19.626-19.626c4.686-4.686 12.284-4.686 16.971 0l96.269 96.064c4.686 4.686 4.686 12.284 0 16.971l-96.269 96.064c-4.686 4.686-12.284 4.686-16.971 0l-19.626-19.626c-4.753-4.753-4.675-12.484.173-17.14L420.78 282v-2H280v140.78h2l41.783-44.986c4.656-4.849 12.387-4.927 17.14-.173l19.626 19.626c4.687 4.685 4.687 12.283 0 16.969z"></path>
  </symbol>
  <symbol id="bars" viewBox="0 0 448 512">
    <path d="M436 124H12c-6.627 0-12-5.373-12-12V80c0-6.627 5.373-12 12-12h424c6.627 0 12 5.373 12 12v32c0 6.627-5.373 12-12 12zm0 160H12c-6.627 0-12-5.373-12-12v-32c0-6.627 5.373-12 12-12h424c6.627 0 12 5.373 12 12v32c0 6.627-5.373 12-12 12zm0 160H12c-6.627 0-12-5.373-12-12v-32c0-6.627 5.373-12 12-12h424c6.627 0 12 5.373 12 12v32c0 6.627-5.373 12-12 12z"></path>
  </symbol>
  <symbol id="chart-bar" viewBox="0 0 512 512">
    <path d="M396.8 352h22.4c6.4 0 12.8-6.4 12.8-12.8V108.8c0-6.4-6.4-12.8-12.8-12.8h-22.4c-6.4 0-12.8 6.4-12.8 12.8v230.4c0 6.4 6.4 12.8 12.8 12.8zm-192 0h22.4c6.4 0 12.8-6.4 12.8-12.8V140.8c0-6.4-6.4-12.8-12.8-12.8h-22.4c-6.4 0-12.8 6.4-12.8 12.8v198.4c0 6.4 6.4 12.8 12.8 12.8zm96 0h22.4c6.4 0 12.8-6.4 12.8-12.8V204.8c0-6.4-6.4-12.8-12.8-12.8h-22.4c-6.4 0-12.8 6.4-12.8 12.8v134.4c0 6.4 6.4 12.8 12.8 12.8zM496 400H48V80c0-8.84-7.16-16-16-16H16C7.16 64 0 71.16 0 80v336c0 17.67 14.33 32 32 32h464c8.84 0 16-7.16 16-16v-16c0-8.84-7.16-16-16-16zm-387.2-48h22.4c6.4 0 12.8-6.4 12.8-12.8v-70.4c0-6.4-6.4-12.8-12.8-12.8h-22.4c-6.4 0-12.8 6.4-12.8 12.8v70.4c0 6.4 6.4 12.8 12.8 12.8z"></path>
  </symbol>
  <symbol id="chart-pie" viewBox="0 0 544 512">
    <path d="M511.96 223.2C503.72 103.74 408.26 8.28 288.8.04c-.35-.03-.7-.04-1.04-.04C279.11 0 272 7.44 272 16.23V240h223.77c9.14 0 16.82-7.68 16.19-16.8zM320 192V53.51C387.56 70.95 441.05 124.44 458.49 192H320zm-96 96V50.72c0-8.83-7.18-16.21-15.74-16.21-.7 0-1.4.05-2.11.15C86.99 51.49-4.1 155.6.14 280.37 4.47 407.53 113.18 512 240.12 512c.98 0 1.93-.01 2.91-.02 50.4-.63 96.97-16.87 135.26-44.03 7.9-5.6 8.42-17.23 1.57-24.08L224 288zm18.44 175.99l-2.31.01c-100.66 0-188.59-84.84-192.01-185.26-2.91-85.4 50.15-160.37 127.88-187.6v216.74l14.06 14.06 126.22 126.22c-23.16 10.1-48.16 15.5-73.84 15.83zM527.79 288H290.5l158.03 158.03c3.17 3.17 7.41 4.81 11.62 4.81 3.82 0 7.62-1.35 10.57-4.13 38.7-36.46 65.32-85.61 73.13-140.86 1.34-9.46-6.51-17.85-16.06-17.85z"></path>
  </symbol>
  <symbol id="check" viewBox="0 0 512 512">
    <path d="M435.848 83.466L172.804 346.51l-96.652-96.652c-4.686-4.686-12.284-4.686-16.971 0l-28.284 28.284c-4.686 4.686-4.686 12.284 0 16.971l133.421 133.421c4.686 4.686 12.284 4.686 16.971 0l299.813-299.813c4.686-4.686 4.686-12.284 0-16.971l-28.284-28.284c-4.686-4.686-12.284-4.686-16.97 0z"></path>
  </symbol>
  <symbol id="cloud-upload-alt" viewBox="0 0 640 512">
    <path d="M395.5 267.5l-99-99c-4.7-4.7-12.3-4.7-17 0l-99 99c-7.6 7.6-2.2 20.5 8.5 20.5h67v84c0 6.6 5.4 12 12 12h40c6.6 0 12-5.4 12-12v-84h67c10.7 0 16.1-12.9 8.5-20.5zm148.2-67.4C539.7 142.1 491.4 96 432 96c-7.6 0-15.1.8-22.4 2.3C377.7 58.3 328.1 32 272 32c-84.6 0-155.5 59.7-172.3 139.8C39.9 196.1 0 254.4 0 320c0 88.4 71.6 160 160 160h336c79.5 0 144-64.5 144-144 0-61.8-39.2-115.8-96.3-135.9zM496 432H160c-61.9 0-112-50.1-112-112 0-56.4 41.7-103.1 96-110.9V208c0-70.7 57.3-128 128-128 53.5 0 99.3 32.8 118.4 79.4 11.2-9.6 25.7-15.4 41.6-15.4 35.3 0 64 28.7 64 64 0 11.8-3.2 22.9-8.8 32.4 2.9-.3 5.9-.4 8.8-.4 53 0 96 43 96 96s-43 96-96 96z"></path>
  </symbol>
  <symbol id="minus" viewBox="0 0 384 512">
    <path d="M368 224H16c-8.84 0-16 7.16-16 16v32c0 8.84 7.16 16 16 16h352c8.84 0 16-7.16 16-16v-32c0-8.84-7.16-16-16-16z"></path>
  </symbol>
  <symbol id="pencil" viewBox="0 0 512 512">
    <path d="M491.609 73.625l-53.861-53.839c-26.378-26.379-69.076-26.383-95.46-.001L24.91 335.089.329 484.085c-2.675 16.215 11.368 30.261 27.587 27.587l148.995-24.582 315.326-317.378c26.33-26.331 26.581-68.879-.628-96.087zM120.644 302l170.259-169.155 88.251 88.251L210 391.355V350h-48v-48h-41.356zM82.132 458.132l-28.263-28.263 12.14-73.587L84.409 338H126v48h48v41.59l-18.282 18.401-73.586 12.141zm378.985-319.533l-.051.051-.051.051-48.03 48.344-88.03-88.03 48.344-48.03.05-.05.05-.05c9.147-9.146 23.978-9.259 33.236-.001l53.854 53.854c9.878 9.877 9.939 24.549.628 33.861z"></path>
  </symbol>
  <symbol id="plus" viewBox="0 0 384 512">
    <path d="M368 224H224V80c0-8.84-7.16-16-16-16h-32c-8.84 0-16 7.16-16 16v144H16c-8.84 0-16 7.16-16 16v32c0 8.84 7.16 16 16 16h144v144c0 8.84 7.16 16 16 16h32c8.84 0 16-7.16 16-16V288h144c8.84 0 16-7.16 16-16v-32c0-8.84-7.16-16-16-16z"></path>
  </symbol>
  <symbol id="plus-square" viewBox="0 0 448 512">
    <path d="M352 240v32c0 6.6-5.4 12-12 12h-88v88c0 6.6-5.4 12-12 12h-32c-6.6 0-12-5.4-12-12v-88h-88c-6.6 0-12-5.4-12-12v-32c0-6.6 5.4-12 12-12h88v-88c0-6.6 5.4-12 12-12h32c6.6 0 12 5.4 12 12v88h88c6.6 0 12 5.4 12 12zm96-160v352c0 26.5-21.5 48-48 48H48c-26.5 0-48-21.5-48-48V80c0-26.5 21.5-48 48-48h352c26.5 0 48 21.5 48 48zm-48 346V86c0-3.3-2.7-6-6-6H54c-3.3 0-6 2.7-6 6v340c0 3.3 2.7 6 6 6h340c3.3 0 6-2.7 6-6z"></path>
  </symbol>
  <symbol id="question-circle" viewBox="0 0 512 512">
    <path d="M256 8C119.043 8 8 119.083 8 256c0 136.997 111.043 248 248 248s248-111.003 248-248C504 119.083 392.957 8 256 8zm0 448c-110.532 0-200-89.431-200-200 0-110.495 89.472-200 200-200 110.491 0 200 89.471 200 200 0 110.53-89.431 200-200 200zm107.244-255.2c0 67.052-72.421 68.084-72.421 92.863V300c0 6.627-5.373 12-12 12h-45.647c-6.627 0-12-5.373-12-12v-8.659c0-35.745 27.1-50.034 47.579-61.516 17.561-9.845 28.324-16.541 28.324-29.579 0-17.246-21.999-28.693-39.784-28.693-23.189 0-33.894 10.977-48.942 29.969-4.057 5.12-11.46 6.071-16.666 2.124l-27.824-21.098c-5.107-3.872-6.251-11.066-2.644-16.363C184.846 131.491 214.94 112 261.794 112c49.071 0 101.45 38.304 101.45 88.8zM298 368c0 23.159-18.841 42-42 42s-42-18.841-42-42 18.841-42 42-42 42 18.841 42 42z"></path>
  </symbol>
  <symbol id="redo" viewBox="0 0 512 512">
    <path d="M500 8h-27.711c-6.739 0-12.157 5.548-11.997 12.286l2.347 98.568C418.075 51.834 341.788 7.73 255.207 8.001 118.82 8.428 7.787 120.009 8 256.396 8.214 393.181 119.165 504 256 504c63.926 0 122.202-24.187 166.178-63.908 5.113-4.618 5.354-12.561.482-17.433l-19.738-19.738c-4.498-4.498-11.753-4.785-16.501-.552C351.787 433.246 306.105 452 256 452c-108.322 0-196-87.662-196-196 0-108.322 87.662-196 196-196 79.545 0 147.941 47.282 178.675 115.302l-126.389-3.009c-6.737-.16-12.286 5.257-12.286 11.997V212c0 6.627 5.373 12 12 12h192c6.627 0 12-5.373 12-12V20c0-6.627-5.373-12-12-12z"></path>
  </symbol>
  <symbol id="save" viewBox="0 0 448 512">
    <path d="M433.941 129.941l-83.882-83.882A48 48 0 0 0 316.118 32H48C21.49 32 0 53.49 0 80v352c0 26.51 21.49 48 48 48h352c26.51 0 48-21.49 48-48V163.882a48 48 0 0 0-14.059-33.941zM272 80v80H144V80h128zm122 352H54a6 6 0 0 1-6-6V86a6 6 0 0 1 6-6h42v104c0 13.255 10.745 24 24 24h176c13.255 0 24-10.745 24-24V83.882l78.243 78.243a6 6 0 0 1 1.757 4.243V426a6 6 0 0 1-6 6zM224 232c-48.523 0-88 39.477-88 88s39.477 88 88 88 88-39.477 88-88-39.477-88-88-88zm0 128c-22.056 0-40-17.944-40-40s17.944-40 40-40 40 17.944 40 40-17.944 40-40 40z"></path>
  </symbol>
  <symbol id="spinner" viewBox="0 0 512 512">
    <path d="M296 48c0 22.091-17.909 40-40 40s-40-17.909-40-40 17.909-40 40-40 40 17.909 40 40zm-40 376c-22.091 0-40 17.909-40 40s17.909 40 40 40 40-17.909 40-40-17.909-40-40-40zm248-168c0-22.091-17.909-40-40-40s-40 17.909-40 40 17.909 40 40 40 40-17.909 40-40zm-416 0c0-22.091-17.909-40-40-40S8 233.909 8 256s17.909 40 40 40 40-17.909 40-40zm20.922-187.078c-22.091 0-40 17.909-40 40s17.909 40 40 40 40-17.909 40-40c0-22.092-17.909-40-40-40zm294.156 294.156c-22.091 0-40 17.909-40 40s17.909 40 40 40c22.092 0 40-17.909 40-40s-17.908-40-40-40zm-294.156 0c-22.091 0-40 17.909-40 40s17.909 40 40 40 40-17.909 40-40-17.909-40-40-40z"></path>
  </symbol>
  <symbol id="times" viewBox="0 0 320 512">
    <path d="M207.6 256l107.72-107.72c6.23-6.23 6.23-16.34 0-22.58l-25.03-25.03c-6.23-6.23-16.34-6.23-22.58 0L160 208.4 52.28 100.68c-6.23-6.23-16.34-6.23-22.58 0L4.68 125.7c-6.23 6.23-6.23 16.34 0 22.58L112.4 256 4.68 363.72c-6.23 6.23-6.23 16.34 0 22.58l25.03 25.03c6.23 6.23 16.34 6.23 22.58 0L160 303.6l107.72 107.72c6.23 6.23 16.34 6.23 22.58 0l25.03-25.03c6.23-6.23 6.23-16.34 0-22.58L207.6 256z"></path>
  </symbol>
  <symbol id="times-circle" viewBox="0 0 512 512">
    <path d="M256 8C119 8 8 119 8 256s111 248 248 248 248-111 248-248S393 8 256 8zm0 448c-110.5 0-200-89.5-200-200S145.5 56 256 56s200 89.5 200 200-89.5 200-200 200zm101.8-262.2L295.6 256l62.2 62.2c4.7 4.7 4.7 12.3 0 17l-22.6 22.6c-4.7 4.7-12.3 4.7-17 0L256 295.6l-62.2 62.2c-4.7 4.7-12.3 4.7-17 0l-22.6-22.6c-4.7-4.7-4.7-12.3 0-17l62.2-62.2-62.2-62.2c-4.7-4.7-4.7-12.3 0-17l22.6-22.6c4.7-4.7 12.3-4.7 17 0l62.2 62.2 62.2-62.2c4.7-4.7 12.3-4.7 17 0l22.6 22.6c4.7 4.7 4.7 12.3 0 17z"></path>
  </symbol>
  <symbol id="trash" viewBox="0 0 448 512">
    <path d="M432 80h-82.4l-34-56.7A48 48 0 0 0 274.4 0H173.6a48 48 0 0 0-41.2 23.3L98.4 80H16A16 16 0 0 0 0 96v16a16 16 0 0 0 16 16h16l21.2 339a48 48 0 0 0 47.9 45h245.8a48 48 0 0 0 47.9-45L416 128h16a16 16 0 0 0 16-16V96a16 16 0 0 0-16-16zM173.6 48h100.8l19.2 32H154.4zm173.3 416H101.11l-21-336h287.8z"></path>
  </symbol>
</svg>
