<?xml version="1.0" encoding="UTF-8"?>
<!--
Font Awesome Pro 5.15.4 by @fontawesome - https://fontawesome.com
License - https://fontawesome.com/license (Commercial License)
-->
<svg xmlns="http://www.w3.org/2000/svg" style="display: none;">
  <defs><style>.fa-secondary { opacity:.4; }</style></defs>
  <symbol id="chevron-right" viewBox="0 0 320 512">
    <path d="M188.74 256l56.78 56.89L91.21 466.9a24 24 0 0 1-33.94 0l-22.7-22.65a23.93 23.93 0 0 1 0-33.84z" class="fa-secondary"></path><path d="M91.25 45.06l194.33 194a23.93 23.93 0 0 1 0 33.84l-40 40-211-211.34a23.92 23.92 0 0 1 0-33.84l22.7-22.65a24 24 0 0 1 33.97-.01z" class="fa-primary"></path>
  </symbol>
  <symbol id="times-circle" viewBox="0 0 512 512">
    <path d="M256 8C119 8 8 119 8 256s111 248 248 248 248-111 248-248S393 8 256 8zm121.6 313.1a12 12 0 0 1 0 17L338 377.6a12 12 0 0 1-17 0L256 312l-65.1 65.6a12 12 0 0 1-17 0L134.4 338a12 12 0 0 1 0-17l65.6-65-65.6-65.1a12 12 0 0 1 0-17l39.6-39.6a12 12 0 0 1 17 0l65 65.7 65.1-65.6a12 12 0 0 1 17 0l39.6 39.6a12 12 0 0 1 0 17L312 256z" class="fa-secondary"></path><path d="M377.6 321.1a12 12 0 0 1 0 17L338 377.6a12 12 0 0 1-17 0L256 312l-65.1 65.6a12 12 0 0 1-17 0L134.4 338a12 12 0 0 1 0-17l65.6-65-65.6-65.1a12 12 0 0 1 0-17l39.6-39.6a12 12 0 0 1 17 0l65 65.7 65.1-65.6a12 12 0 0 1 17 0l39.6 39.6a12 12 0 0 1 0 17L312 256z" class="fa-primary"></path>
  </symbol>
</svg>
